<?xml version="1.0" encoding="iso-8859-1"?>
<!-- Generator: Adobe Illustrator 19.2.0, SVG Export Plug-In . SVG Version: 6.00 Build 0)  -->
<svg version="1.1" id="Layer_1" xmlns="http://www.w3.org/2000/svg" xmlns:xlink="http://www.w3.org/1999/xlink" x="0px" y="0px"
	 viewBox="0 0 750 150" style="enable-background:new 0 0 750 150;" xml:space="preserve">
<g>
	<rect style="fill:none;" width="150" height="150"/>
	<rect x="150" style="fill:none;" width="150" height="150"/>
	<rect x="300" style="fill:none;" width="150" height="150"/>
	<rect x="450" style="fill:none;" width="150" height="150"/>
	<rect x="600" style="fill:none;" width="150" height="150"/>
	<g>
		<g>
			<g>
				<path style="fill:#EA7A06;" d="M60.717,108.376c0.374-0.813,0.799-1.734,0.799-3.425c0-2.308-0.879-3.958-1.654-5.413
					c-0.665-1.247-1.19-2.232-1.19-3.569c0-1.878,0.365-2.837,1.13-4.157c0.596-1.027,0.246-2.343-0.781-2.939
					c-1.028-0.595-2.343-0.245-2.938,0.781c-1.057,1.821-1.711,3.513-1.711,6.315c0,2.41,0.939,4.173,1.694,5.59
					c0.642,1.206,1.15,2.158,1.15,3.393c0,0.747-0.118,1.005-0.404,1.625c-0.33,0.715-0.754,1.654-1.02,3.323l-3.213,0.012
					l5.396,9.26l5.322-9.303l-3.127,0.013C60.326,109.233,60.517,108.808,60.717,108.376z"/>
			</g>
			<g>
				<path style="fill:#EA7A06;" d="M77.779,108.376c0.374-0.813,0.799-1.734,0.799-3.425c0-2.308-0.879-3.958-1.654-5.413
					c-0.665-1.247-1.19-2.232-1.19-3.569c0-1.881,0.365-2.838,1.13-4.154c0.597-1.027,0.249-2.343-0.777-2.941
					c-1.027-0.596-2.343-0.249-2.939,0.777c-1.058,1.82-1.714,3.51-1.714,6.318c0,2.41,0.939,4.173,1.694,5.59
					c0.642,1.206,1.15,2.158,1.15,3.393c0,0.747-0.118,1.005-0.404,1.625c-0.33,0.715-0.754,1.654-1.021,3.321l-3.213,0.014
					l5.397,9.26l5.322-9.304l-3.127,0.013C77.387,109.232,77.579,108.808,77.779,108.376z"/>
			</g>
			<g>
				<path style="fill:#EA7A06;" d="M94.294,109.88c0.156-0.647,0.348-1.072,0.547-1.505c0.374-0.813,0.799-1.734,0.799-3.425
					c0-2.308-0.879-3.958-1.654-5.413c-0.665-1.247-1.19-2.232-1.19-3.569c0-1.88,0.365-2.837,1.132-4.154
					c0.597-1.027,0.249-2.343-0.777-2.941c-1.026-0.596-2.342-0.249-2.939,0.777c-1.059,1.821-1.715,3.512-1.715,6.318
					c0,2.41,0.939,4.173,1.694,5.59c0.642,1.206,1.15,2.158,1.15,3.393c0,0.747-0.118,1.005-0.404,1.625
					c-0.33,0.715-0.754,1.654-1.02,3.323l-3.213,0.012l5.396,9.26l5.322-9.303L94.294,109.88z"/>
			</g>
		</g>
		<g>
			<path style="fill:#FFFFFF;" d="M132.834,31.828H17.166c-3.958,0-7.166,3.207-7.166,7.166v34.417c0,3.958,3.208,7.166,7.166,7.166
				h115.668c3.958,0,7.166-3.208,7.166-7.166V38.994C140,35.035,136.792,31.828,132.834,31.828z"/>
			<path style="fill:#EA7A06;" d="M132.834,81.576H17.166C12.663,81.576,9,77.913,9,73.41V38.994c0-4.503,3.663-8.166,8.166-8.166
				h115.668c4.503,0,8.166,3.663,8.166,8.166v34.417C141,77.913,137.337,81.576,132.834,81.576z M17.166,32.828
				c-3.4,0-6.166,2.766-6.166,6.166v34.417c0,3.4,2.766,6.166,6.166,6.166h115.668c3.4,0,6.166-2.766,6.166-6.166V38.994
				c0-3.4-2.766-6.166-6.166-6.166C132.834,32.828,17.166,32.828,17.166,32.828z"/>
		</g>
		<g>
			<path style="fill:#FFFFFF;" d="M116.641,39.77c0-1.583,1.283-2.866,2.866-2.866h4.423c1.583,0,2.866,1.284,2.866,2.866v4.423
				c0,1.583-1.283,2.866-2.866,2.866h-4.423c-1.583,0-2.866-1.283-2.866-2.866V39.77z"/>
			<path style="fill:#EA7A06;" d="M123.931,48.059h-4.423c-2.132,0-3.866-1.734-3.866-3.866V39.77c0-2.132,1.734-3.867,3.866-3.867
				h4.423c2.132,0,3.866,1.734,3.866,3.867v4.422C127.797,46.325,126.062,48.059,123.931,48.059z M119.508,37.904
				c-1.029,0-1.866,0.837-1.866,1.867v4.422c0,1.029,0.837,1.866,1.866,1.866h4.423c1.029,0,1.866-0.837,1.866-1.866V39.77
				c0-1.029-0.837-1.867-1.866-1.867L119.508,37.904L119.508,37.904z"/>
		</g>
		<g>
			<path style="fill:#FFFFFF;" d="M100.391,39.77c0-1.583,1.283-2.866,2.866-2.866h4.423c1.583,0,2.866,1.284,2.866,2.866v4.423
				c0,1.583-1.283,2.866-2.866,2.866h-4.423c-1.583,0-2.866-1.283-2.866-2.866V39.77z"/>
			<path style="fill:#EA7A06;" d="M107.68,48.059h-4.423c-2.132,0-3.866-1.734-3.866-3.866V39.77c0-2.132,1.734-3.867,3.866-3.867
				h4.423c2.132,0,3.866,1.734,3.866,3.867v4.422C111.546,46.325,109.812,48.059,107.68,48.059z M103.257,37.904
				c-1.029,0-1.866,0.837-1.866,1.867v4.422c0,1.029,0.837,1.866,1.866,1.866h4.423c1.029,0,1.866-0.837,1.866-1.866V39.77
				c0-1.029-0.837-1.867-1.866-1.867L103.257,37.904L103.257,37.904z"/>
		</g>
		<g>
			<path style="fill:#EA7A06;" d="M129.008,74.485H20.991c-1.583,0-2.866-0.91-2.866-2.032c0-1.121,1.283-2.031,2.866-2.031h108.017
				c1.583,0,2.866,0.91,2.866,2.031C131.874,73.575,130.591,74.485,129.008,74.485z"/>
		</g>
		<g>
			<path style="fill:#EA7A06;" d="M129.008,66.359H20.991c-1.583,0-2.866-0.91-2.866-2.032c0-1.121,1.283-2.031,2.866-2.031h108.017
				c1.583,0,2.866,0.91,2.866,2.031C131.874,65.449,130.591,66.359,129.008,66.359z"/>
		</g>
		<g>
			<path style="fill:#EA7A06;" d="M129.008,58.233H20.991c-1.583,0-2.866-0.91-2.866-2.032c0-1.121,1.283-2.031,2.866-2.031h108.017
				c1.583,0,2.866,0.91,2.866,2.031C131.874,57.324,130.591,58.233,129.008,58.233z"/>
		</g>
	</g>
	<g>
		<g>
			<g>
				<g>
					<g>
						<g>
							<path style="fill:#FFFFFF;" d="M207.809,25l-23.165,22.841V120c0,2.761,2.239,5,5,5h70.72c2.761,0,5-2.239,5-5V30
								c0-2.761-2.239-5-5-5H207.809z"/>
							<path style="fill:#EA7A06;" d="M260.365,126h-70.721c-3.309,0-6-2.691-6-6V47.842c0-0.268,0.107-0.524,0.298-0.712
								l23.165-22.842c0.187-0.185,0.44-0.288,0.702-0.288h52.555c3.309,0,6,2.691,6,6v90C266.365,123.309,263.673,126,260.365,126z
								 M185.644,48.26V120c0,2.206,1.794,4,4,4h70.72c2.206,0,4-1.794,4-4V30c0-2.206-1.794-4-4-4H208.22L185.644,48.26z"/>
						</g>
					</g>
				</g>
			</g>
			<g>
				<path style="fill:#EA7A06;" d="M234.498,81.227c5.747,3.296,9.619,9.492,9.619,16.592c0,10.555-8.557,19.113-19.113,19.113
					c-0.05,0-0.099-0.001-0.149-0.002l2.531-3.959c7.339-1.144,12.954-7.492,12.954-15.152c0-5.491-2.886-10.308-7.224-13.017
					L234.498,81.227L234.498,81.227z M218.069,115.633c-7.127-2.776-12.177-9.706-12.177-17.814c0-8.593,5.671-15.861,13.474-18.267
					l-1.794,4.85c-4.713,2.617-7.903,7.643-7.903,13.417c0,6.423,3.948,11.922,9.55,14.206L218.069,115.633L218.069,115.633z
					 M222.944,77.655l-8.715,23.558l11.261,0.006l-5.337,16.763h0.828l14.8-23.147l-9.418-0.037l6.624-17.143
					C232.987,77.655,222.944,77.655,222.944,77.655z"/>
			</g>
			<g>
				<path style="fill:#FFFFFF;" d="M210.78,36.987l-2.859-11.973l-23.285,22.778l22.322-4.754
					C209.706,42.453,211.432,39.72,210.78,36.987z"/>
				<path style="fill:#EA7A06;" d="M184.636,48.792c-0.363,0-0.705-0.198-0.881-0.527c-0.21-0.393-0.136-0.876,0.182-1.188
					l23.284-22.778c0.257-0.252,0.63-0.347,0.977-0.246c0.346,0.1,0.612,0.378,0.695,0.729l2.859,11.973l0,0
					c0.378,1.586,0.107,3.219-0.763,4.598c-0.871,1.378-2.229,2.325-3.823,2.664l-22.321,4.753
					C184.775,48.785,184.705,48.792,184.636,48.792z M207.358,26.963L187.8,46.096l18.95-4.036c1.063-0.227,1.968-0.857,2.549-1.776
					c0.581-0.919,0.761-2.007,0.509-3.064L207.358,26.963z"/>
			</g>
			<g>
				<path style="fill:#EA7A06;" d="M260,34.65h-38c-0.552,0-1-0.448-1-1c0-0.552,0.448-1,1-1h38c0.553,0,1,0.448,1,1
					C261,34.202,260.553,34.65,260,34.65z"/>
			</g>
			<g>
				<path style="fill:#EA7A06;" d="M260,42.65h-38c-0.552,0-1-0.448-1-1c0-0.552,0.448-1,1-1h38c0.553,0,1,0.448,1,1
					C261,42.202,260.553,42.65,260,42.65z"/>
			</g>
			<g>
				<path style="fill:#EA7A06;" d="M260,56.65h-70c-0.552,0-1-0.448-1-1s0.448-1,1-1h70c0.553,0,1,0.448,1,1
					S260.553,56.65,260,56.65z"/>
			</g>
			<g>
				<path style="fill:#EA7A06;" d="M260,64.65h-70c-0.552,0-1-0.448-1-1c0-0.552,0.448-1,1-1h70c0.553,0,1,0.448,1,1
					C261,64.202,260.553,64.65,260,64.65z"/>
			</g>
			<g>
				<path style="fill:#EA7A06;" d="M260,72.65h-70c-0.552,0-1-0.448-1-1s0.448-1,1-1h70c0.553,0,1,0.448,1,1
					S260.553,72.65,260,72.65z"/>
			</g>
		</g>
	</g>
	<g>
		<g>
			<g>
				<path style="fill:#EA7A06;" d="M391.518,120.861h-59.117c-2.481,0-4.5-2.019-4.5-4.5V28.84c0-2.481,2.019-4.5,4.5-4.5h59.117
					c2.481,0,4.5,2.019,4.5,4.5v87.521C396.018,118.843,394,120.861,391.518,120.861z M332.401,27.34c-0.827,0-1.5,0.673-1.5,1.5
					v87.521c0,0.827,0.673,1.5,1.5,1.5h59.117c0.827,0,1.5-0.673,1.5-1.5V28.84c0-0.827-0.673-1.5-1.5-1.5H332.401z"/>
			</g>
			<g>
				<path style="fill:#EA7A06;" d="M418.595,121.044c-0.386,0-0.773-0.063-1.146-0.193l-24.431-8.486v-79.53l24.431-8.486
					c1.068-0.37,2.256-0.201,3.177,0.454c0.922,0.656,1.472,1.722,1.472,2.853v89.89c0,1.13-0.55,2.196-1.471,2.852
					C420.026,120.823,419.315,121.044,418.595,121.044z M396.018,110.232l22.415,7.786c0.211,0.075,0.375-0.009,0.454-0.065
					c0.078-0.056,0.21-0.183,0.21-0.407V27.655c0-0.225-0.132-0.352-0.21-0.408c-0.079-0.056-0.241-0.14-0.454-0.064l-22.415,7.786
					V110.232z"/>
			</g>
			<g>
				<path style="fill:#EA7A06;" d="M388.198,124.843H335.72c-1.105,0-2-0.895-2-2v-3.482h56.478v3.482
					C390.198,123.948,389.303,124.843,388.198,124.843z"/>
				<path style="fill:#EA7A06;" d="M388.198,125.843H335.72c-1.654,0-3-1.346-3-3v-4.481h58.479v4.481
					C391.198,124.497,389.854,125.843,388.198,125.843z M334.72,120.361v2.481c0,0.551,0.449,1,1,1h52.479c0.552,0,1-0.449,1-1
					v-2.481H334.72z"/>
			</g>
			<g>
				<rect x="337" y="48.814" style="fill:#EA7A06;" width="48" height="2"/>
			</g>
			<g>
				<rect x="337" y="68.814" style="fill:#EA7A06;" width="48" height="2"/>
			</g>
			<g>
				<rect x="337" y="88.814" style="fill:#EA7A06;" width="48" height="2"/>
			</g>
			<g>
				<rect x="337" y="108.814" style="fill:#EA7A06;" width="48" height="2"/>
			</g>
			<g>
				<path style="fill:#EA7A06;" d="M345.017,89.465c-4.055,0-7.354-3.299-7.354-7.354s3.299-7.354,7.354-7.354
					c4.055,0,7.354,3.299,7.354,7.354S349.072,89.465,345.017,89.465z M345.017,76.757c-2.952,0-5.354,2.402-5.354,5.354
					c0,2.952,2.402,5.354,5.354,5.354s5.354-2.402,5.354-5.354C350.371,79.159,347.969,76.757,345.017,76.757z"/>
			</g>
			<g>
				<path style="fill:#EA7A06;" d="M360.964,89.465c-4.055,0-7.354-3.299-7.354-7.354s3.299-7.354,7.354-7.354
					s7.354,3.299,7.354,7.354S365.018,89.465,360.964,89.465z M360.964,76.757c-2.952,0-5.354,2.402-5.354,5.354
					c0,2.952,2.401,5.354,5.354,5.354s5.354-2.402,5.354-5.354C366.318,79.159,363.915,76.757,360.964,76.757z"/>
			</g>
			<g>
				<g>
					<path style="fill:#EA7A06;" d="M345.017,109.398c-4.055,0-7.354-3.299-7.354-7.354s3.299-7.354,7.354-7.354
						c4.055,0,7.354,3.299,7.354,7.354S349.072,109.398,345.017,109.398z M345.017,96.69c-2.952,0-5.354,2.402-5.354,5.354
						s2.402,5.354,5.354,5.354s5.354-2.402,5.354-5.354S347.969,96.69,345.017,96.69z"/>
				</g>
				<g>
					<path style="fill:#EA7A06;" d="M360.964,109.398c-4.055,0-7.354-3.299-7.354-7.354s3.299-7.354,7.354-7.354
						s7.354,3.299,7.354,7.354S365.018,109.398,360.964,109.398z M360.964,96.69c-2.952,0-5.354,2.402-5.354,5.354
						s2.401,5.354,5.354,5.354s5.354-2.402,5.354-5.354S363.915,96.69,360.964,96.69z"/>
				</g>
				<g>
					<path style="fill:#EA7A06;" d="M376.909,109.398c-4.055,0-7.354-3.299-7.354-7.354s3.299-7.354,7.354-7.354
						c4.055,0,7.354,3.299,7.354,7.354S380.965,109.398,376.909,109.398z M376.909,96.69c-2.952,0-5.354,2.402-5.354,5.354
						s2.401,5.354,5.354,5.354c2.953,0,5.354-2.402,5.354-5.354S379.862,96.69,376.909,96.69z"/>
				</g>
			</g>
			<g>
				<path style="fill:#EA7A06;" d="M354.862,69.531h-13.461V52.456h13.461V69.531z M343.401,67.531h9.462V54.456h-9.462
					C343.401,54.456,343.401,67.531,343.401,67.531z"/>
			</g>
			<g>
				<path style="fill:#EA7A06;" d="M380.319,69.531h-23.345V52.456h23.346L380.319,69.531L380.319,69.531z M358.974,67.531h19.346
					V54.456h-19.346V67.531z"/>
			</g>
			<g>
				<path style="fill:#EA7A06;" d="M367.07,49.597h-11.094V35.762h11.095v13.835H367.07z M357.977,47.597h7.095v-9.835h-7.095
					C357.977,37.762,357.977,47.597,357.977,47.597z"/>
			</g>
			<g>
				<path style="fill:#EA7A06;" d="M381.772,49.597h-11.095V35.762h11.095C381.772,35.762,381.772,49.597,381.772,49.597z
					 M372.677,47.597h7.095v-9.835h-7.095V47.597z"/>
			</g>
			<g>
				<path style="fill:#EA7A06;" d="M352.495,49.597h-11.094V35.762h11.095v13.835H352.495z M343.401,47.597h7.095v-9.835h-7.095
					C343.401,37.762,343.401,47.597,343.401,47.597z"/>
			</g>
		</g>
	</g>
	<path style="fill:#EA7A06;" d="M554.625,53.057L533.7,58.568c-4.233-2.238-9.32-2.855-14.253-1.323
		c-9.847,3.057-15.354,13.514-12.297,23.361c3.057,9.848,13.516,15.352,23.363,12.297c8.226-2.554,13.42-10.273,13.126-18.488
		l14.076-16.43L554.625,53.057z M529.677,82.558c-4.136,2.593-9.59,1.341-12.181-2.793c-2.592-4.135-1.342-9.588,2.793-12.18
		c4.135-2.592,9.588-1.341,12.179,2.794C535.062,74.513,533.812,79.966,529.677,82.558z M525,126.5c-28.397,0-51.5-23.103-51.5-51.5
		s23.103-51.5,51.5-51.5c28.397,0,51.5,23.103,51.5,51.5C576.499,103.397,553.396,126.5,525,126.5z M525,26.5
		c-26.743,0-48.5,21.757-48.5,48.5s21.757,48.5,48.5,48.5c26.743,0,48.5-21.757,48.5-48.5C573.499,48.257,551.742,26.5,525,26.5z
		 M525,38.173c-20.339,0-36.826,16.488-36.826,36.827c0,5.89,1.391,11.66,4.093,16.889c-0.474-2.433-0.726-4.956-0.726-7.542
		c0-19.771,14.591-35.847,32.738-36.264c5.739-0.153,11.334,1.506,16.052,4.78l11.533-3.052
		C545.143,42.65,535.595,38.173,525,38.173L525,38.173z"/>
	<g>
		<g>
			<g>
				<g>
					<path style="fill:#FFFFFF;" d="M684.329,118.444c-3.928,8.754-14.72,8.744-18.657,0.001c-3.498-0.983-5.937-2.605-5.937-4.866
						V93.155c10.662,1.881,19.868,1.864,30.531,0.002v20.422C690.266,115.84,687.827,117.461,684.329,118.444L684.329,118.444z"/>
					<path style="fill:#EA7A06;" d="M675.006,126.006c-4.26,0-7.984-2.504-10.047-6.727c-5.129-1.553-6.224-3.944-6.224-5.7V91.963
						l1.174,0.207c10.528,1.858,19.555,1.857,30.185,0.002l1.172-0.205v21.611c0,1.755-1.094,4.145-6.222,5.699
						c-2.055,4.22-5.774,6.726-10.03,6.728C675.012,126.006,675.009,126.006,675.006,126.006z M660.735,94.34v19.239
						c0,1.551,1.898,2.974,5.208,3.903l0.45,0.126l0.191,0.426c1.684,3.739,4.833,5.971,8.423,5.971c0.002,0,0.003,0,0.005,0
						c3.586-0.002,6.728-2.234,8.404-5.971l0.192-0.427l0.45-0.127c1.945-0.546,5.207-1.78,5.207-3.902V94.341
						C679.288,95.972,670.622,95.972,660.735,94.34z"/>
				</g>
				<g>
					<path style="fill:#FFFFFF;" d="M659.735,99.988c10.662,1.881,19.868,1.864,30.531,0.002"/>
					<path style="fill:#EA7A06;" d="M674.968,102.398c-5.016,0-10.019-0.475-15.407-1.425l0.348-1.97
						c10.528,1.858,19.556,1.858,30.185,0.002l0.344,1.97C685.004,101.924,679.979,102.398,674.968,102.398z"/>
				</g>
				<g>
					<path style="fill:#FFFFFF;" d="M659.735,105.346c10.662,1.881,19.868,1.864,30.531,0.002"/>
					<path style="fill:#EA7A06;" d="M674.968,107.756c-5.016,0-10.019-0.475-15.407-1.425l0.348-1.97
						c10.528,1.858,19.556,1.858,30.185,0.002l0.344,1.97C685.004,107.282,679.979,107.756,674.968,107.756z"/>
				</g>
				<g>
					<path style="fill:#FFFFFF;" d="M659.735,110.703c10.662,1.881,19.868,1.864,30.531,0.002"/>
					<path style="fill:#EA7A06;" d="M674.968,113.114c-5.016,0-10.019-0.475-15.407-1.425l0.348-1.97
						c10.528,1.857,19.556,1.858,30.185,0.002l0.344,1.971C685.004,112.639,679.979,113.114,674.968,113.114z"/>
				</g>
			</g>
			<g>
				<path style="fill:#FFFFFF;" d="M651.937,80.594c3.676,4.152,6.181,6.65,7.952,12.097c10.249,1.958,19.974,1.907,30.223,0.004
					c1.757-5.442,4.283-7.958,7.951-12.102c6.125-6.919,9.715-15.415,9.746-24.318c0.143-41.695-65.765-41.691-65.617,0.004
					C642.224,65.181,645.812,73.675,651.937,80.594z"/>
				<path style="fill:#EA7A06;" d="M674.905,95.151c-5.043,0-10.051-0.492-15.204-1.477l-0.581-0.111l-0.183-0.562
					c-1.559-4.798-3.668-7.163-6.859-10.744l-0.89-1c-6.414-7.247-9.964-16.117-9.996-24.974
					c-0.043-12.016,5.337-21.762,15.149-27.443c11.16-6.461,26.155-6.461,37.315-0.002c9.812,5.679,15.193,15.425,15.152,27.44
					c-0.031,8.858-3.582,17.729-9.997,24.977l-0.903,1.016c-3.192,3.582-5.3,5.948-6.845,10.731l-0.183,0.567l-0.586,0.109
					C685.011,94.66,679.94,95.151,674.905,95.151z M660.65,91.817c9.646,1.776,18.798,1.776,28.701,0
					c1.66-4.812,3.946-7.377,7.065-10.877l0.898-1.01c6.094-6.885,9.466-15.287,9.495-23.659
					c0.039-11.269-4.988-20.397-14.154-25.703c-10.561-6.112-24.75-6.112-35.311,0.002c-9.166,5.308-14.192,14.437-14.152,25.706
					c0.03,8.372,3.401,16.773,9.494,23.656l0,0l0.885,0.996C656.69,84.426,658.976,86.99,660.65,91.817z"/>
			</g>
			<g>
				<g>
					<path style="fill:#EA7A06;" d="M675.427,32.71c4.862,0,8.741,1.174,11.635,3.523s4.341,5.48,4.341,9.394
						c0,2.633-0.587,4.88-1.761,6.743s-3.434,4.003-6.778,6.422c-2.3,1.685-3.749,2.966-4.341,3.843s-0.89,2.028-0.89,3.451v2.135
						h-9.429v-2.633c0-2.277,0.486-4.264,1.459-5.96c0.973-1.695,2.734-3.464,5.284-5.302c2.55-1.838,4.216-3.304,4.999-4.394
						c0.783-1.091,1.174-2.372,1.174-3.843s-0.564-2.61-1.69-3.416c-1.126-0.806-2.722-1.21-4.786-1.21
						c-3.535,0-7.591,1.162-12.169,3.487l-3.878-7.792C663.911,34.192,669.521,32.71,675.427,32.71z M667.066,80.336
						c0-1.957,0.534-3.446,1.601-4.465c1.067-1.019,2.603-1.53,4.608-1.53s3.546,0.521,4.626,1.566
						c1.08,1.045,1.619,2.521,1.619,4.43c0,1.909-0.552,3.403-1.655,4.483c-1.103,1.08-2.633,1.619-4.59,1.619
						c-1.957,0-3.482-0.528-4.572-1.583C667.613,83.801,667.066,82.293,667.066,80.336z"/>
				</g>
			</g>
		</g>
	</g>
</g>
</svg>
