<?xml version="1.0" encoding="iso-8859-1"?>
<!-- Generator: Adobe Illustrator 19.2.0, SVG Export Plug-In . SVG Version: 6.00 Build 0)  -->
<svg version="1.1" id="Layer_1" xmlns="http://www.w3.org/2000/svg" xmlns:xlink="http://www.w3.org/1999/xlink" x="0px" y="0px"
	 viewBox="0 0 1072.44 264.652" style="enable-background:new 0 0 1072.44 264.652;" xml:space="preserve">
<g>
	<defs>
		<rect id="SVGID_1_" width="1072.44" height="264.652"/>
	</defs>
	<clipPath id="SVGID_2_">
		<use xlink:href="#SVGID_1_"  style="overflow:visible;"/>
	</clipPath>
	<path style="clip-path:url(#SVGID_2_);fill:#51AE43;" d="M48.29,63.226c21.885,0,40.523,11.72,43.208,34.454H74.271
		C72.437,84.548,61.138,77.628,48.29,77.628c-21.603,0-30.639,19.064-30.639,38.408s9.036,38.406,30.639,38.406
		c18.215,0.423,27.816-10.59,28.24-27.675H49.702v-13.415h42.926v53.093H81.332l-2.685-11.862
		c-9.46,10.732-18.074,14.263-30.357,14.263c-30.075,0-48.29-23.864-48.29-52.81C0,87.371,18.215,63.226,48.29,63.226"/>
	<path style="clip-path:url(#SVGID_2_);fill:#51AE43;" d="M103.903,93.443h15.11v14.12h0.282
		c1.835-7.767,11.578-16.098,21.32-16.098c3.811,0,4.52,0.283,6.073,0.425v15.532c-2.262-0.424-4.661-0.706-6.92-0.706
		c-10.872,0-19.767,8.755-19.767,24.992v34.736h-16.098V93.443z"/>
	<path style="clip-path:url(#SVGID_2_);fill:#51AE43;" d="M158.82,134.109c0,11.437,6.214,21.604,19.626,21.604
		c9.464,0,14.969-4.095,17.792-12.143h15.251c-3.388,15.954-17.227,24.85-33.043,24.85c-23.014,0-35.72-15.814-35.72-38.406
		c0-20.757,13.553-38.549,35.297-38.549c23.017,0,37.139,20.758,34.454,42.644H158.82z M196.379,123.518
		c-0.706-10.166-7.34-19.344-18.356-19.344c-11.154,0-18.78,8.472-19.203,19.344H196.379z"/>
	<path style="clip-path:url(#SVGID_2_);fill:#51AE43;" d="M231.67,134.109c0,11.437,6.214,21.604,19.63,21.604
		c9.46,0,14.965-4.095,17.788-12.143h15.251c-3.388,15.954-17.227,24.85-33.039,24.85c-23.018,0-35.724-15.814-35.724-38.406
		c0-20.757,13.553-38.549,35.297-38.549c23.017,0,37.139,20.758,34.454,42.644H231.67z M269.229,123.518
		c-0.706-10.166-7.34-19.344-18.356-19.344c-11.154,0-18.78,8.472-19.203,19.344H269.229z"/>
	<path style="clip-path:url(#SVGID_2_);fill:#51AE43;" d="M291.951,93.443h15.251v10.731l0.282,0.282
		c4.94-8.049,13.13-12.991,22.732-12.991c15.956,0,25.84,8.331,25.84,24.853v50.126h-16.097v-45.89
		c-0.424-11.438-4.658-16.38-14.26-16.38c-10.734,0-17.65,8.472-17.65,19.203v43.067h-16.098V93.443z"/>
	<path style="clip-path:url(#SVGID_2_);fill:#51AE43;" d="M660.157,188.684H0.222v12h670.035
		C666.614,196.684,663.238,192.684,660.157,188.684"/>
	<path style="clip-path:url(#SVGID_2_);fill:#2A4191;" d="M427.765,129.873c0-22.169,12.554-38.408,34.134-38.408
		c21.577,0,34.134,16.239,34.134,38.408c0,22.451-12.557,38.547-34.134,38.547C440.319,168.42,427.765,152.324,427.765,129.873
		 M481.123,129.873c0-12.567-5.886-25.699-19.224-25.699c-13.341,0-19.227,13.132-19.227,25.699c0,12.708,5.886,25.84,19.227,25.84
		C475.237,155.713,481.123,142.581,481.123,129.873"/>
	<path style="clip-path:url(#SVGID_2_);fill:#2A4191;" d="M503.603,93.443h14.125v9.884h0.262
		c4.183-8.472,12.161-11.861,20.923-11.861c21.319,0,31.65,17.368,31.65,38.831c0,19.767-9.285,38.123-29.166,38.123
		c-8.632,0-18.047-3.387-22.623-11.436h-0.262v43.7h-14.909V93.443z M536.952,104.174c-12.557,0-18.962,10.166-18.962,25.84
		c0,14.685,6.931,25.7,18.962,25.7c13.602,0,18.701-12.991,18.701-25.7C555.653,116.882,549.244,104.174,536.952,104.174"/>
	<path style="clip-path:url(#SVGID_2_);fill:#2A4191;" d="M589.118,143.005c0.915,9.46,7.324,12.708,15.302,12.708
		c5.755,0,15.433-1.272,15.04-9.601c-0.392-8.472-11.246-9.462-22.103-12.144c-10.984-2.542-21.708-6.778-21.708-21.604
		c0-15.957,15.956-20.899,28.248-20.899c13.864,0,26.548,6.073,28.248,22.452h-15.561c-1.441-7.765-7.062-9.743-13.733-9.743
		c-4.317,0-12.295,1.129-12.295,7.484c0,7.908,10.988,9.178,21.972,11.719c10.854,2.683,21.842,6.92,21.842,21.322
		c0,17.368-16.217,23.721-30.212,23.721c-17.132,0-29.555-8.188-29.95-25.415H589.118z"/>
	<path style="clip-path:url(#SVGID_2_);fill:#2A4191;" d="M31.362,263.643v-21.585c0-6.253-1.027-7.732-8.338-7.732h-8.075v20.845
		c0,7.061-2.501,9.212-7.632,9.212c-1.986,0-4.359-1.413-4.359-1.413v-4.371c2.245,1.883,5.899,1.548,5.899-3.294v-25.417h14.427
		c12.693,0,14.167,1.883,14.167,13.649v20.106H31.362z"/>
	<path style="clip-path:url(#SVGID_2_);fill:#2A4191;" d="M44.305,249.455v-12.978c0-1.749-0.768-5.716-1.346-6.589h6.221
		c0,0,1.217,2.017,1.217,6.724v12.843H44.305z"/>
	<path style="clip-path:url(#SVGID_2_);fill:#2A4191;" d="M72.387,264.652c-12.759,0-15.389-10.558-15.389-15.802v-18.962h6.093
		v19.231c0,4.64,2.885,10.893,9.424,10.893c7.501,0,8.847-7.33,8.847-12.172c0-9.143-1.025-14.052-6.667-14.052
		c-4.232,0-4.616,1.546-4.937,1.546v-4.506c0-0.471,2.051-1.949,5.449-1.949c9.424,0,12.437,4.64,12.437,18.894
		C87.644,258.33,82.901,264.652,72.387,264.652"/>
	<path style="clip-path:url(#SVGID_2_);fill:#2A4191;" d="M105.981,263.643c-1.733-1.21-0.643-5.715-2.439-5.715
		c-1.346,0-0.64,6.724-8.013,6.724c-4.169,0-4.743-1.009-4.743-1.009v-5.313c6.217,3.161,13.206-0.738,13.206-11.699v-3.563
		c0-4.842-1.09-8.742-7.567-8.742h-4.871v-4.438h7.31c5.896,0,11.089,3.429,11.089,13.18c0,6.388-0.062,13.245,0,13.649
		c0,3.43,1.221,6.186,1.605,6.926H105.981z"/>
	<path style="clip-path:url(#SVGID_2_);fill:#2A4191;" d="M131.877,263.643v-21.45c0-6.522-1.152-7.867-8.912-7.867h-9.68v-4.438
		h12.693c9.296,0,11.991,2.891,11.991,11.565v22.19H131.877z"/>
	<path style="clip-path:url(#SVGID_2_);fill:#2A4191;" d="M141.813,263.643v-4.505h11.798V244.21c0-6.926-1.284-9.884-6.539-9.884
		h-4.809v-4.438h6.795c6.154,0,10.579,3.025,10.579,11.767v21.988H141.813z"/>
	<polygon style="clip-path:url(#SVGID_2_);fill:#2A4191;" points="187.329,263.643 173.355,243.605 169.57,263.643 163.416,263.643 
		169.186,238.024 163.544,229.888 170.916,229.888 182.842,247.504 186.755,229.888 193.1,229.888 186.689,252.884 194.255,263.643 
			"/>
	<path style="clip-path:url(#SVGID_2_);fill:#2A4191;" d="M237.723,263.643v-21.585c0-6.253-1.027-7.732-8.338-7.732h-8.075v20.845
		c0,7.061-2.501,9.212-7.632,9.212c-1.986,0-4.359-1.413-4.359-1.413v-4.371c2.245,1.883,5.899,1.548,5.899-3.294v-25.417h14.427
		c12.693,0,14.167,1.883,14.167,13.649v20.106H237.723z"/>
	<path style="clip-path:url(#SVGID_2_);fill:#2A4191;" d="M251.372,263.643v-27.165c0-1.749-0.768-5.716-1.346-6.59h6.221
		c0,0,1.217,2.018,1.217,6.725v27.03H251.372z"/>
	<path style="clip-path:url(#SVGID_2_);fill:#2A4191;" d="M280.479,263.643h-6.22l3.397-20.642c0.771-4.573,2.117-8.675-4.55-8.675
		h-6.988c-3.142,0-6.349-1.48-6.349-6.253v-6.322c0-3.967-1.474-6.655-1.474-6.655h6.539c0,0,1.028,2.284,1.028,6.118
		c0,8.405,0.318,8.674,4.103,8.674h7.435c9.94,0,7.438,7.732,6.476,13.38L280.479,263.643z"/>
	<path style="clip-path:url(#SVGID_2_);fill:#2A4191;" d="M304.582,263.643h-16.797v-4.438h10.13l-10.13-29.317h6.477l9.87,29.317
		c3.207,0,7.245-1.815,7.245-9.951v-19.366h6.092v19.5C317.469,259.474,312.595,263.643,304.582,263.643"/>
	<path style="clip-path:url(#SVGID_2_);fill:#2A4191;" d="M324.327,249.455v-12.978c0-1.749-0.768-5.716-1.346-6.589h6.221
		c0,0,1.217,2.017,1.217,6.724v12.843H324.327z"/>
	<path style="clip-path:url(#SVGID_2_);fill:#2A4191;" d="M337.401,249.455v-12.978c0-1.749-0.768-5.716-1.346-6.589h6.221
		c0,0,1.217,2.017,1.217,6.724v12.843H337.401z"/>
	<path style="clip-path:url(#SVGID_2_);fill:#2A4191;" d="M374.396,263.643v-21.585c0-6.253-1.027-7.732-8.338-7.732h-8.075v20.845
		c0,7.061-2.501,9.212-7.632,9.212c-1.986,0-4.359-1.413-4.359-1.413v-4.371c2.245,1.883,5.899,1.548,5.899-3.294v-25.417h14.427
		c12.693,0,14.167,1.883,14.167,13.649v20.106H374.396z"/>
	<path style="clip-path:url(#SVGID_2_);fill:#2A4191;" d="M409.142,263.643v-19.568c0-7.195-1.474-9.749-8.975-9.749h-13.658v-4.438
		h13.914c10.449,0,14.808,2.219,14.808,13.985v19.77H409.142z M386.509,243.739h6.155v19.904h-6.155V243.739z"/>
	<path style="clip-path:url(#SVGID_2_);fill:#2A4191;" d="M419.269,263.643v-4.438h8.784c7.563,0,10.064-5.715,10.064-12.978
		c0-8.203-4.037-11.901-10.514-11.901h-7.95v-4.438h8.016c9.68,0,16.925,3.631,16.925,16.205c0,11.633-6.667,11.902-6.667,13.045
		c0,0.673,2.626,0.067,4.359,0.067h5.577v4.438H419.269z"/>
	<path style="clip-path:url(#SVGID_2_);fill:#2A4191;" d="M467.86,263.643v-33.755h18.337c9.233,0,12.053,2.891,12.053,11.565v22.19
		H467.86z M492.161,242.193c0-6.522-1.155-7.867-8.978-7.867h-9.23v24.879h18.208V242.193z"/>
	<path style="clip-path:url(#SVGID_2_);fill:#2A4191;" d="M505.17,249.455v-12.978c0-1.749-0.768-5.716-1.346-6.589h6.221
		c0,0,1.217,2.017,1.217,6.724v12.843H505.17z"/>
	<path style="clip-path:url(#SVGID_2_);fill:#2A4191;" d="M541.649,263.643V244.21c0-7.33-1.218-9.884-7.757-9.884h-9.49v29.317
		h-6.089v-33.755l15.773-0.067c10.13-0.067,13.655,3.227,13.655,13.514v20.308H541.649z"/>
	<path style="clip-path:url(#SVGID_2_);fill:#2A4191;" d="M568.701,263.643v-4.64c4.937,1.479,10.58,1.144,10.58-5.715v-10.691
		c0-2.623,0.19-9.213-6.989-9.213c-6.795,0-10.642,7.599-10.642,13.045v17.214h-6.092v-26.426c0-1.748,0.193-4.035-0.768-7.329
		h5.705c0.833,2.287,0.833,4.035,0.833,6.992c0.194,0.337,0.384,0.404,0.64,0.068c0,0,2.439-8.204,11.414-8.204
		c12.372,0,12.053,9.549,12.053,13.718v11.297C585.435,263.845,577.613,266.131,568.701,263.643"/>
	<path style="clip-path:url(#SVGID_2_);fill:#2A4191;" d="M593.061,263.643v-27.165c0-1.749-0.768-5.716-1.346-6.59h6.221
		c0,0,1.217,2.018,1.217,6.725v27.03H593.061z"/>
	<path style="clip-path:url(#SVGID_2_);fill:#2A4191;" d="M620.759,263.643v-4.64c4.937,1.479,10.58,1.144,10.58-5.715v-10.691
		c0-2.623,0.19-9.213-6.989-9.213c-6.795,0-10.642,7.599-10.642,13.045v17.214h-6.092v-26.426c0-1.748,0.193-4.035-0.768-7.329
		h5.705c0.833,2.287,0.833,4.035,0.833,6.992c0.194,0.337,0.384,0.404,0.64,0.068c0,0,2.439-8.204,11.414-8.204
		c12.372,0,12.053,9.549,12.053,13.718v11.297C637.493,263.845,629.671,266.131,620.759,263.643"/>
</g>
<g>
	<defs>
		<path id="SVGID_3_" d="M810.098,115.684h0.123v-0.224C810.18,115.535,810.139,115.609,810.098,115.684 M733.221,81.684h59v10
			h-47.999v27h45v10h-45v30h48.999v10h-60V81.684z M646.786,123.377c0,57.497,46.243,104.239,103.307,104.239
			c41.051,0,76.493-23.932,93.162-58.932h-2.034v-42.616c0-7.743-4.73-12.585-12.596-12.585c-12.464,0-18.404,8.35-18.404,19.603
			v35.598h-10v-63h10v9.776c4.366-7.838,11.345-11.102,20.334-11.102c16.457,0,21.667,9.489,21.667,22.921v13.44
			c1-5.64,1.307-11.432,1.307-17.342c0-57.496-46.323-104.106-103.388-104.106C693.077,19.271,646.786,65.881,646.786,123.377"/>
	</defs>
	<clipPath id="SVGID_4_">
		<use xlink:href="#SVGID_3_"  style="overflow:visible;"/>
	</clipPath>
	
		<linearGradient id="SVGID_5_" gradientUnits="userSpaceOnUse" x1="2.361777e-06" y1="264.652" x2="1" y2="264.652" gradientTransform="matrix(206.7432 0 0 -206.7432 646.7855 54838.4375)">
		<stop  offset="0" style="stop-color:#CA2424"/>
		<stop  offset="1" style="stop-color:#EA7A06"/>
	</linearGradient>
	<rect x="646.786" y="19.271" style="clip-path:url(#SVGID_4_);fill:url(#SVGID_5_);" width="206.743" height="208.345"/>
</g>
<g>
	<defs>
		<path id="SVGID_6_" d="M1061.549,105.861l-17.544,51.184h-0.243l-18.271-51.184h-11.617l24.806,62.195l-4.235,10.649
			c-1.935,3.75-4.234,5.686-8.469,5.686c-2.059,0-4.115-0.847-6.05-1.451v9.437c2.298,0.848,4.719,1.089,7.138,1.089
			c9.197,0,13.311-4.598,18.151-16.698l27.225-70.907H1061.549z M888.027,113.483c10.285,0,17.425,7.866,18.029,17.668h-35.937
			C870.724,121.47,877.379,113.483,888.027,113.483 M859.229,136.958c0.605,18.997,10.043,32.913,30.008,32.913
			c14.157,0,23.959-7.382,26.742-21.296h-10.164c-1.815,8.228-7.624,12.222-16.215,12.222c-13.672,0-19.845-9.682-19.481-20.571
			h46.828c0.605-15.126-6.171-35.817-28.315-35.817C871.571,104.409,859.229,118.083,859.229,136.958 M963.536,136.233
			c0-11.98,5.324-22.75,18.513-22.75c12.948,0,17.788,11.376,17.788,22.386c0,11.738-5.082,24.2-18.634,24.2
			C967.65,160.069,963.536,147.485,963.536,136.233 M952.646,137.442c0,17.063,9.316,31.703,27.952,31.703
			c7.985,0,15.972-3.751,19.481-11.374h0.242v4.114c0,14.036-5.324,23.716-18.756,23.716c-6.655,0-15.851-2.782-16.214-10.164
			h-10.285c0.604,13.553,14.158,18.392,25.894,18.392c19.845,0,29.041-10.285,29.041-30.734v-57.234h-9.68v8.954h-0.121
			c-3.752-6.897-10.77-10.406-18.635-10.406C959.785,104.409,952.646,122.68,952.646,137.442 M932.316,119.05h-0.242v-13.189h-9.681
			v62.559h10.285v-27.832c0-15.971,6.051-25.289,22.628-25.289v-10.89c-0.388-0.013-0.771-0.019-1.148-0.019
			C943.696,104.39,937.104,109.241,932.316,119.05"/>
	</defs>
	<clipPath id="SVGID_7_">
		<use xlink:href="#SVGID_6_"  style="overflow:visible;"/>
	</clipPath>
	
		<linearGradient id="SVGID_8_" gradientUnits="userSpaceOnUse" x1="-1.145067e-06" y1="264.652" x2="1" y2="264.652" gradientTransform="matrix(213.2109 0 0 -213.2109 859.2292 56575.8125)">
		<stop  offset="0" style="stop-color:#CA2424"/>
		<stop  offset="1" style="stop-color:#EA7A06"/>
	</linearGradient>
	<rect x="859.229" y="104.39" style="clip-path:url(#SVGID_7_);fill:url(#SVGID_8_);" width="213.211" height="89.439"/>
</g>
<g>
	<defs>
		<rect id="SVGID_9_" width="1072.44" height="264.652"/>
	</defs>
	<clipPath id="SVGID_10_">
		<use xlink:href="#SVGID_9_"  style="overflow:visible;"/>
	</clipPath>
	<polygon style="clip-path:url(#SVGID_10_);fill:#2A4191;" points="546.713,0.619 554.886,11.673 507.373,49.41 472.078,31.17 
		356.112,96.684 386.364,96.684 399.221,89.947 399.221,166.684 416.221,166.684 416.221,80.237 472.889,49.077 507.357,69.245 
		563.39,23.185 571.388,33.997 582.46,0 	"/>
</g>
</svg>
